<svg xmlns="http://www.w3.org/2000/svg" id="uuid-1e59e2ef-b1a5-491f-9999-825347cc148f" viewBox="0 0 482.36 92.45"><path d="M40.8,52.05c-.95-1.34-2.21-2.42-3.68-3.15-1.57-.83-3.32-1.25-5.1-1.24-4.5,0-8,1.33-10.49,4-4.99,6.15-4.99,14.96,0,21.11,2.49,2.67,5.99,4,10.49,4,1.79,.05,3.56-.41,5.1-1.31,1.38-.83,2.62-1.87,3.68-3.08l11.74,12.33c-2.69,2.81-6.06,4.87-9.78,6-7.58,2.43-15.76,2.28-23.25-.41-3.77-1.34-7.24-3.42-10.2-6.11-2.91-2.68-5.23-5.93-6.82-9.55-3.32-7.97-3.32-16.94,0-24.91,1.59-3.61,3.92-6.86,6.82-9.54,2.96-2.69,6.43-4.77,10.2-6.11,4.01-1.44,8.25-2.16,12.51-2.14,3.65,.04,7.26,.62,10.74,1.72,3.72,1.13,7.08,3.2,9.78,6l-11.74,12.39Z" style="fill:#fff;"></path><path d="M76.74,1.41V41.26h.23c.46-1.22,1.14-2.35,2-3.33,1-1.16,2.15-2.17,3.44-3,1.47-.93,3.07-1.65,4.74-2.14,1.93-.57,3.92-.85,5.93-.83,4.51,0,8.14,.69,10.91,2.08,2.65,1.27,4.89,3.27,6.47,5.75,1.63,2.66,2.7,5.62,3.16,8.71,.57,3.57,.85,7.18,.83,10.79v31.79h-17.83v-28.24c0-1.66-.06-3.38-.18-5.16-.1-1.68-.46-3.34-1.06-4.92-.56-1.45-1.51-2.72-2.73-3.68-1.56-1.04-3.41-1.54-5.28-1.42-1.93-.08-3.85,.34-5.57,1.24-1.38,.78-2.51,1.94-3.27,3.33-.77,1.46-1.27,3.04-1.48,4.68-.24,1.81-.36,3.63-.35,5.46v28.7h-17.75V1.41h17.79Z" style="fill:#fff;"></path><path d="M125.83,15.28c.01-5.71,4.65-10.32,10.35-10.31,5.71,.01,10.32,4.65,10.31,10.35-.01,5.71-4.65,10.32-10.35,10.31-2.74,0-5.37-1.1-7.31-3.05-1.97-1.91-3.05-4.56-3-7.3Zm1.43,18.15h17.79v57.64h-17.79V33.43Z" style="fill:#fff;"></path><path d="M158.09,1.41h17.79V91.07h-17.79V1.41Z" style="fill:#fff;"></path><path d="M187.5,15.28c.01-5.71,4.65-10.32,10.35-10.31,5.71,.01,10.32,4.65,10.31,10.35-.01,5.71-4.65,10.32-10.35,10.31-2.74,0-5.37-1.1-7.31-3.05-1.97-1.91-3.05-4.56-3-7.3Zm1.43,18.15h17.79v57.64h-17.79V33.43Z" style="fill:#fff;"></path><path d="M257.62,42.68h-11.41v-6.41h11.41V18.37c-.1-3.03,.44-6.04,1.6-8.84,.93-2.13,2.29-4.05,4-5.63,1.52-1.38,3.32-2.4,5.28-3,1.78-.57,3.64-.87,5.51-.89,2.8-.09,5.59,.39,8.19,1.43l-1.43,6.16c-2.02-.87-4.2-1.28-6.4-1.18-6.41,0-9.61,4.86-9.61,14.59v15.29h12.76v6.41h-12.81v48.39h-7.09V42.68Z" style="fill:#fff;"></path><path d="M288.07,14.57c0-2.95,2.38-5.34,5.33-5.35,2.95,0,5.34,2.38,5.35,5.33h0c0,2.96-2.38,5.36-5.33,5.36-2.95,0-5.34-2.38-5.35-5.33h0Zm1.78,21.69h7.12v54.8h-7.12V36.27Z" style="fill:#fff;"></path><path d="M318.32,1.41h7.11V91.07h-7.11V1.41Z" style="fill:#fff;"></path><path d="M345.62,51.69c0-1,0-2.27-.12-3.73s-.13-2.95-.17-4.45-.1-2.91-.18-4.21-.12-2.31-.12-3h7.12c.07,2.06,.13,4.04,.17,5.93-.02,1.23,.08,2.47,.3,3.68h.36c1.6-3.2,4.06-5.89,7.11-7.77,3.47-2.21,7.52-3.35,11.63-3.26,3.53-.04,7,.93,10,2.79,3,1.86,5.17,4.88,6.52,9.07,1.48-3.8,4.22-6.98,7.77-9,3.31-1.87,7.05-2.85,10.85-2.85,3.59-.15,7.16,.54,10.44,2,2.52,1.2,4.7,3.02,6.34,5.28,1.58,2.26,2.67,4.82,3.2,7.53,.57,2.9,.83,5.85,.78,8.8v32.62h-7.11V58.81c0-2.17-.2-4.34-.59-6.47-.36-1.98-1.06-3.89-2.08-5.63-1-1.68-2.43-3.06-4.15-4-2.15-1.07-4.54-1.58-6.94-1.48-2.84-.11-5.66,.52-8.18,1.83-2.02,1.14-3.74,2.75-5,4.69-1.23,1.89-2.11,3.98-2.61,6.17-.5,2.06-.76,4.16-.77,6.28v30.84h-7.12V58.04c0-5.06-.93-9.13-2.79-12.22-1.77-3.03-5.09-4.82-8.59-4.62-2.54-.02-5.05,.45-7.42,1.36-2.29,.9-4.35,2.32-6,4.15-1.79,2.04-3.15,4.42-4,7-1.05,3.19-1.55,6.54-1.48,9.9v27.4h-7.17V51.69Z" style="fill:#fff;"></path><path d="M446.76,77.07c1.45,2.88,3.77,5.22,6.64,6.7,2.84,1.53,6.02,2.33,9.25,2.32,1.53,0,3.05-.25,4.51-.72,1.43-.44,2.79-1.12,4-2,1.16-.85,2.15-1.92,2.9-3.14,.76-1.27,1.16-2.74,1.13-4.22,.15-2.18-.75-4.29-2.43-5.69-1.8-1.36-3.83-2.38-6-3-2.57-.76-5.19-1.38-7.83-1.84-2.69-.47-5.32-1.27-7.82-2.37-2.31-1.01-4.36-2.53-6-4.45-1.63-1.9-2.44-4.58-2.44-8.07-.06-2.44,.51-4.85,1.66-7,1.07-1.94,2.55-3.61,4.33-4.92,1.81-1.32,3.84-2.31,6-2.91,2.2-.63,4.47-.95,6.76-.95,4.04-.1,8.04,.75,11.69,2.49,3.33,1.72,6.01,4.46,7.65,7.83l-6.41,3.79c-1.15-2.31-2.87-4.29-5-5.75-3.62-2-7.88-2.48-11.86-1.36-1.32,.37-2.58,.93-3.74,1.66-1.1,.71-2.05,1.64-2.78,2.73-.76,1.12-1.15,2.44-1.13,3.79-.15,2.11,.76,4.16,2.43,5.46,1.82,1.27,3.85,2.22,6,2.78,2.57,.72,5.19,1.3,7.83,1.72,2.7,.44,5.33,1.22,7.83,2.32,2.34,1.04,4.4,2.62,6,4.62,1.62,2,2.43,4.87,2.43,8.6,.06,2.56-.49,5.1-1.6,7.41-1.05,2.07-2.55,3.87-4.39,5.28-1.9,1.44-4.06,2.53-6.35,3.2-2.42,.72-4.94,1.08-7.47,1.07-4.48,.06-8.92-.88-13-2.73-3.85-1.76-7.03-4.71-9.07-8.42l6.28-4.23Z" style="fill:#fff;"></path></svg>